# This file uses centimeters as units for non-parametric coordinates.

mtllib sign.mtl
g default
v -0.578478 -6.105705 0.592973
v 0.578478 -6.105705 0.592973
v -0.578478 6.105705 0.592973
v 0.578478 6.105705 0.592973
v -0.578478 6.105705 -0.592973
v 0.578478 6.105705 -0.592973
v -0.578478 -6.105705 -0.592973
v 0.578478 -6.105705 -0.592973
v -0.578478 13.107167 0.592973
v 0.578478 13.107167 0.592973
v 0.578478 13.107167 -0.592973
v -0.578478 13.107167 -0.592973
v 8.402851 6.105705 0.592973
v 8.402851 6.105705 -0.592973
v 8.402851 13.107167 -0.592973
v 8.402851 13.107167 0.592973
v -8.402851 6.105705 0.592973
v -8.402851 6.105705 -0.592973
v -8.402851 13.107167 0.592973
v -8.402851 13.107167 -0.592973
vt 0.375000 0.000000
vt 0.625000 0.000000
vt 0.375000 0.250000
vt 0.625000 0.250000
vt 0.375000 0.500000
vt 0.625000 0.500000
vt 0.375000 0.750000
vt 0.625000 0.750000
vt 0.375000 1.000000
vt 0.625000 1.000000
vt 0.875000 0.000000
vt 0.875000 0.250000
vt 0.125000 0.000000
vt 0.125000 0.250000
vt 0.375000 0.250000
vt 0.625000 0.250000
vt 0.625000 0.500000
vt 0.375000 0.500000
vt 0.625000 0.250000
vt 0.625000 0.500000
vt 0.625000 0.500000
vt 0.625000 0.250000
vt 0.375000 0.500000
vt 0.375000 0.250000
vt 0.375000 0.250000
vt 0.375000 0.500000
vn 0.000000 0.000000 1.000000
vn 0.000000 0.000000 1.000000
vn 0.000000 0.000000 1.000000
vn 0.000000 0.000000 1.000000
vn 0.000000 0.000000 -1.000000
vn 0.000000 0.000000 -1.000000
vn 0.000000 0.000000 -1.000000
vn 0.000000 0.000000 -1.000000
vn 0.000000 -1.000000 0.000000
vn 0.000000 -1.000000 0.000000
vn 0.000000 -1.000000 0.000000
vn 0.000000 -1.000000 0.000000
vn 1.000000 0.000000 0.000000
vn 1.000000 0.000000 0.000000
vn 1.000000 0.000000 0.000000
vn 1.000000 0.000000 0.000000
vn -1.000000 0.000000 0.000000
vn -1.000000 0.000000 0.000000
vn -1.000000 0.000000 0.000000
vn -1.000000 0.000000 0.000000
vn 1.000000 0.000000 0.000000
vn 1.000000 0.000000 0.000000
vn 1.000000 0.000000 0.000000
vn 1.000000 0.000000 0.000000
vn -1.000000 0.000000 0.000000
vn -1.000000 0.000000 0.000000
vn -1.000000 0.000000 0.000000
vn -1.000000 0.000000 0.000000
vn 0.000000 -1.000000 0.000000
vn 0.000000 -1.000000 0.000000
vn 0.000000 -1.000000 0.000000
vn 0.000000 -1.000000 0.000000
vn 0.000000 0.000000 -1.000000
vn 0.000000 0.000000 -1.000000
vn 0.000000 0.000000 -1.000000
vn 0.000000 0.000000 -1.000000
vn 0.000000 0.000000 -1.000000
vn 0.000000 0.000000 -1.000000
vn 0.000000 -1.000000 0.000000
vn 0.000000 -1.000000 0.000000
vn 0.000000 -1.000000 0.000000
vn 0.000000 -1.000000 0.000000
vn 0.000000 0.000000 1.000000
vn 0.000000 0.000000 1.000000
vn 0.000000 0.000000 1.000000
vn 0.000000 0.000000 1.000000
vn 0.000000 0.000000 1.000000
vn 0.000000 0.000000 1.000000
vn 0.000000 1.000000 0.000000
vn 0.000000 1.000000 0.000000
vn 0.000000 1.000000 0.000000
vn 0.000000 1.000000 0.000000
vn 0.000000 1.000000 0.000000
vn 0.000000 1.000000 0.000000
vn 0.000000 1.000000 0.000000
vn 0.000000 1.000000 0.000000
s 1
g pCube1
usemtl initialShadingGroup
f 1/1/1 2/2/2 4/4/3 3/3/4
s 2
f 5/5/5 6/6/6 8/8/7 7/7/8
s off
f 7/7/9 8/8/10 2/10/11 1/9/12
f 2/2/13 8/11/14 6/12/15 4/4/16
f 7/13/17 1/1/18 3/3/19 5/14/20
f 13/19/21 14/20/22 15/21/23 16/22/24
f 18/23/25 17/24/26 19/25/27 20/26/28
f 4/4/29 6/6/30 14/20/31 13/19/32
s 2
f 12/18/33 11/17/34 15/21/35 14/20/36 6/6/6 5/5/5 18/23/37 20/26/38
s off
f 5/5/39 3/3/40 17/24/41 18/23/42
s 1
f 10/16/43 9/15/44 19/25/45 17/24/46 3/3/4 4/4/3 13/19/47 16/22/48
s off
f 12/18/49 20/26/50 19/25/51 9/15/52 10/16/53 16/22/54 15/21/55 11/17/56
