# This file uses centimeters as units for non-parametric coordinates.

mtllib g_belt_nouvs.mtl
g default
v -1.602794 1.142818 -0.350838
v -0.855332 1.121232 -1.230207
v -0.794464 1.862274 -0.882704
v -1.478639 1.895335 -0.187495
v -1.606729 1.070338 0.577905
v -1.503621 1.903167 0.638013
v -0.814621 1.920450 1.485067
v -0.852557 0.754703 1.312874
v -1.696990 1.164310 -0.391275
v -0.919186 1.147583 -1.318820
v -0.858318 1.888625 -0.971317
v -1.572836 1.916828 -0.227932
v -1.704846 1.077011 0.615324
v -1.601738 1.909840 0.675432
v -0.875601 1.913012 1.576201
v -0.913537 0.747264 1.404008
v 1.602714 1.142761 -0.350838
v 0.855290 1.121176 -1.230207
v 0.794425 1.862182 -0.882704
v 1.478567 1.895241 -0.187495
v -0.000000 1.976968 -1.188684
v -0.000000 1.076465 -1.494169
v 1.606650 1.070285 0.577905
v 1.503547 1.903073 0.638013
v 0.814580 1.920356 1.485067
v 0.852515 0.754666 1.312874
v -0.000000 0.667306 1.805701
v -0.000000 1.888892 1.822857
v 1.696906 1.164253 -0.391275
v 0.919141 1.147526 -1.318820
v 0.858276 1.888532 -0.971317
v 1.572758 1.916733 -0.227932
v -0.000001 2.002946 -1.286289
v -0.000001 1.102443 -1.591774
v 1.704761 1.076958 0.615324
v 1.601659 1.909746 0.675432
v 0.875558 1.912917 1.576201
v 0.913492 0.747227 1.404008
v -0.000001 0.655344 1.911881
v -0.000001 1.876930 1.929037
vt 0.625000 0.685265
vt 0.554127 0.677784
vt 0.554127 0.660971
vt 0.625000 0.660971
vt 0.500000 0.660971
vt 0.500000 0.676574
vt 0.625000 0.064735
vt 0.875000 0.064735
vt 0.875000 0.089029
vt 0.625000 0.089029
vt 0.554127 0.089029
vt 0.554127 0.064735
vt 0.500000 0.064735
vt 0.500000 0.089029
vt 0.625000 0.685265
vt 0.554127 0.677784
vt 0.554127 0.660971
vt 0.625000 0.660971
vt 0.500000 0.660971
vt 0.500000 0.676574
vt 0.625000 0.064735
vt 0.875000 0.064735
vt 0.875000 0.089029
vt 0.625000 0.089029
vt 0.554127 0.089029
vt 0.554127 0.064735
vt 0.500000 0.064735
vt 0.500000 0.089029
vt 0.625000 0.685265
vt 0.554127 0.677784
vt 0.554127 0.660971
vt 0.625000 0.660971
vt 0.500000 0.660971
vt 0.500000 0.676574
vt 0.625000 0.064735
vt 0.875000 0.064735
vt 0.875000 0.089029
vt 0.625000 0.089029
vt 0.554127 0.089029
vt 0.554127 0.064735
vt 0.500000 0.064735
vt 0.500000 0.089029
vt 0.625000 0.685265
vt 0.554127 0.677784
vt 0.554127 0.660971
vt 0.625000 0.660971
vt 0.625000 0.064735
vt 0.875000 0.064735
vt 0.875000 0.089029
vt 0.625000 0.089029
vt 0.554127 0.089029
vt 0.554127 0.064735
vt 0.625000 0.685265
vt 0.625000 0.660971
vt 0.554127 0.660971
vt 0.554127 0.677784
vt 0.625000 0.064735
vt 0.625000 0.089029
vt 0.875000 0.089029
vt 0.875000 0.064735
vt 0.554127 0.064735
vt 0.554127 0.089029
vt 0.625000 0.685265
vt 0.554127 0.677784
vt 0.554127 0.660971
vt 0.625000 0.660971
vt 0.625000 0.064735
vt 0.875000 0.064735
vt 0.875000 0.089029
vt 0.625000 0.089029
vt 0.554127 0.089029
vt 0.554127 0.064735
vn -0.705983 0.305929 -0.638745
vn -0.705983 0.305929 -0.638745
vn -0.540693 0.340544 -0.769208
vn -0.499004 0.346342 -0.794382
vn -0.305424 0.361714 -0.880840
vn -0.305424 0.361714 -0.880840
vn -0.989572 0.143542 -0.011958
vn -0.989572 0.143542 -0.011958
vn -0.989572 0.143542 -0.011958
vn -0.989572 0.143542 -0.011958
vn -0.746105 -0.024684 0.665371
vn -0.746105 -0.024684 0.665371
vn -0.592538 -0.046626 0.804192
vn -0.590876 -0.046835 0.805402
vn -0.436352 -0.064249 0.897479
vn -0.436352 -0.064249 0.897479
vn 0.698709 -0.307493 0.645952
vn 0.502685 -0.345303 0.792511
vn 0.542703 -0.339694 0.768167
vn 0.698709 -0.307493 0.645952
vn 0.318179 -0.360573 0.876784
vn 0.318179 -0.360573 0.876784
vn 0.989601 -0.143415 0.011027
vn 0.989601 -0.143415 0.011027
vn 0.989601 -0.143415 0.011027
vn 0.989601 -0.143415 0.011027
vn 0.740949 0.025710 -0.671069
vn 0.593470 0.046916 -0.803488
vn 0.595651 0.046638 -0.801888
vn 0.740949 0.025710 -0.671069
vn 0.448666 0.063574 -0.891436
vn 0.448666 0.063574 -0.891436
vn -0.166092 -0.979781 -0.111547
vn -0.167650 -0.979287 -0.113540
vn -0.157514 -0.971907 -0.174887
vn -0.155425 -0.971689 -0.177941
vn 0.084180 0.975001 0.205635
vn 0.088412 0.975229 0.202762
vn 0.166569 0.982939 0.078016
vn 0.166529 0.982956 0.077878
vn -0.028047 0.959786 0.279328
vn -0.028047 0.959786 0.279328
vn -0.118727 -0.965760 -0.230678
vn -0.118727 -0.965760 -0.230678
vn -0.162875 -0.973126 -0.162779
vn -0.162134 -0.973762 -0.159690
vn 0.053835 0.998549 -0.001171
vn 0.057862 0.998324 -0.000942
vn -0.004648 0.999045 0.043445
vn -0.004924 0.999183 0.040107
vn -0.115258 -0.978010 -0.173820
vn -0.109349 -0.979550 -0.168891
vn -0.038728 -0.993218 -0.109627
vn -0.038728 -0.993218 -0.109627
vn -0.000137 0.995205 0.097807
vn -0.000137 0.995205 0.097807
vn 0.705997 0.305935 -0.638726
vn 0.499031 0.346346 -0.794363
vn 0.540713 0.340549 -0.769192
vn 0.705997 0.305935 -0.638726
vn 0.305464 0.361717 -0.880825
vn 0.305464 0.361717 -0.880825
vn 0.989572 0.143542 -0.011958
vn 0.989572 0.143542 -0.011958
vn 0.989572 0.143542 -0.011958
vn 0.989572 0.143542 -0.011958
vn 0.746121 -0.024685 0.665352
vn 0.590885 -0.046837 0.805395
vn 0.592556 -0.046627 0.804179
vn 0.746121 -0.024685 0.665352
vn 0.436365 -0.064250 0.897473
vn 0.436365 -0.064250 0.897473
vn -0.698723 -0.307499 0.645934
vn -0.698723 -0.307499 0.645934
vn -0.542724 -0.339699 0.768150
vn -0.502713 -0.345306 0.792492
vn -0.318221 -0.360576 0.876767
vn -0.318221 -0.360575 0.876767
vn -0.989601 -0.143415 0.011027
vn -0.989601 -0.143415 0.011027
vn -0.989601 -0.143415 0.011027
vn -0.989601 -0.143415 0.011027
vn -0.740965 0.025711 -0.671051
vn -0.740965 0.025711 -0.671051
vn -0.595670 0.046638 -0.801875
vn -0.593480 0.046918 -0.803480
vn -0.448679 0.063575 -0.891429
vn -0.448679 0.063575 -0.891429
vn 0.166092 -0.979782 -0.111541
vn 0.155403 -0.971693 -0.177941
vn 0.157492 -0.971910 -0.174891
vn 0.167650 -0.979287 -0.113534
vn -0.084137 0.975004 0.205642
vn -0.166529 0.982957 0.077872
vn -0.166570 0.982939 0.078014
vn -0.088363 0.975231 0.202773
vn 0.028146 0.959777 0.279351
vn 0.028146 0.959777 0.279351
vn 0.118676 -0.965763 -0.230691
vn 0.118676 -0.965763 -0.230691
vn 0.162875 -0.973128 -0.162769
vn 0.162135 -0.973763 -0.159683
vn -0.057863 0.998324 -0.000941
vn -0.053833 0.998549 -0.001171
vn 0.004968 0.999184 0.040092
vn 0.004694 0.999045 0.043432
vn 0.115245 -0.978013 -0.173809
vn 0.109331 -0.979555 -0.168878
vn 0.038696 -0.993221 -0.109614
vn 0.038696 -0.993221 -0.109614
vn 0.000236 0.995209 0.097775
vn 0.000236 0.995209 0.097775
s 1
g pasted__polySurface2
usemtl initialShadingGroup
f 9/29/1 12/32/2 11/31/3 10/30/4
f 33/33/5 34/34/6 10/30/4 11/31/3
s off
f 13/35/7 14/38/8 12/37/9 9/36/10
s 2
f 14/38/11 13/35/12 16/40/13 15/39/14
f 39/41/15 40/42/16 15/39/14 16/40/13
s 3
f 1/15/17 2/16/18 3/17/19 4/18/20
f 21/19/21 3/17/19 2/16/18 22/20/22
s off
f 5/21/23 1/22/24 4/23/25 6/24/26
s 4
f 6/24/27 7/25/28 8/26/29 5/21/30
f 27/27/31 8/26/29 7/25/28 28/28/32
s 5
f 1/1/33 9/29/34 10/30/35 2/2/36
s 6
f 3/3/37 11/31/38 12/32/39 4/4/40
f 21/5/41 33/33/42 11/31/38 3/3/37
s 5
f 10/30/35 34/34/43 22/6/44 2/2/36
f 5/7/45 13/35/46 9/36/34 1/8/33
s 6
f 4/9/40 12/37/39 14/38/47 6/10/48
f 6/10/48 14/38/47 15/39/49 7/11/50
s 5
f 8/12/51 16/40/52 13/35/46 5/7/45
f 27/13/53 39/41/54 16/40/52 8/12/51
s 6
f 7/11/50 15/39/49 40/42/55 28/14/56
s 7
f 29/43/57 30/44/58 31/45/59 32/46/60
f 33/33/61 31/45/59 30/44/58 34/34/62
s off
f 35/47/63 29/48/64 32/49/65 36/50/66
s 8
f 36/50/67 37/51/68 38/52/69 35/47/70
f 39/41/71 38/52/69 37/51/68 40/42/72
s 9
f 17/53/73 20/54/74 19/55/75 18/56/76
f 21/19/77 22/20/78 18/56/76 19/55/75
s off
f 23/57/79 24/58/80 20/59/81 17/60/82
s 10
f 24/58/83 23/57/84 26/61/85 25/62/86
f 27/27/87 28/28/88 25/62/86 26/61/85
s 11
f 17/63/89 18/64/90 30/44/91 29/43/92
s 12
f 19/65/93 20/66/94 32/46/95 31/45/96
f 21/5/97 19/65/93 31/45/96 33/33/98
s 11
f 30/44/91 18/64/90 22/6/99 34/34/100
f 23/67/101 17/68/89 29/48/92 35/47/102
s 12
f 20/69/94 24/70/103 36/50/104 32/49/95
f 24/70/103 25/71/105 37/51/106 36/50/104
s 11
f 26/72/107 23/67/101 35/47/102 38/52/108
f 27/13/109 26/72/107 38/52/108 39/41/110
s 12
f 25/71/105 28/14/111 40/42/112 37/51/106
